<svg width="230" height="46" viewBox="0 0 230 46" fill="none" xmlns="http://www.w3.org/2000/svg">
<path d="M0.688906 44.52C3.02891 44.4 4.64891 44.16 4.64891 40.98V18.6H0.388906V18.3C1.82891 18.3 3.20891 18.24 4.64891 18.12V13.38C4.64891 1.68 14.9689 0.539997 18.3289 0.539997C23.7289 0.539997 27.3889 3.6 27.3889 6.96C27.3889 9 26.0089 11.76 22.5289 11.76C19.5289 11.76 17.7289 9.66 17.7289 7.02C17.7289 4.32 19.6489 2.76 21.3289 1.92C20.6689 1.44 19.8289 1.14 18.8689 1.14C14.3689 1.14 14.3689 6.3 14.3689 11.22V18H24.0889V18.6H14.3689V40.98C14.3689 44.16 17.2489 44.4 20.3089 44.52V45C18.2089 44.94 2.30891 44.94 0.688906 45V44.52ZM42.6927 26.88C42.6927 22.98 42.2727 17.76 38.0127 17.76C36.0927 17.76 34.2927 18.72 32.7327 20.04C34.4127 20.46 36.1527 22.02 36.1527 24.54C36.1527 27.18 34.1727 29.34 31.3527 29.34C28.5327 29.34 26.6727 27.18 26.6727 24.54C26.6727 20.82 30.4527 17.1 40.2927 17.1C52.4127 17.1 52.4127 22.74 52.4127 28.2V40.2C52.4127 43.14 54.2727 43.98 56.9727 44.04V44.52C54.5127 44.4 44.7927 45.18 43.1127 45.48H42.6927V40.32C41.1927 42.12 37.9527 45.48 33.8727 45.48C31.7727 45.48 26.5527 44.76 26.5527 39.06C26.5527 32.28 33.8727 31.08 42.6927 29.64V26.88ZM36.5127 36.9C36.5127 40.26 37.3527 41.34 39.3327 41.34C40.2327 41.34 41.0127 41.16 42.6927 39.54V30.24C37.0527 31.26 36.5127 34.14 36.5127 36.9ZM58.7511 44.52C61.0911 44.4 62.7111 44.16 62.7111 40.98V5.28C62.7111 2.34 60.8511 1.5 58.1511 1.44V0.959998C60.6111 1.08 70.3311 0.299996 72.0111 -3.57628e-06H72.4311V40.98C72.4311 44.16 74.0511 44.4 76.3911 44.52V45C74.7711 44.94 60.3711 44.94 58.7511 45V44.52ZM78.5558 44.52C80.8958 44.4 82.5158 44.16 82.5158 40.98V5.28C82.5158 2.34 80.6558 1.5 77.9558 1.44V0.959998C80.4158 1.08 90.1358 0.299996 91.8158 -3.57628e-06H92.2358V40.98C92.2358 44.16 93.8558 44.4 96.1958 44.52V45C94.5758 44.94 80.1758 44.94 78.5558 45V44.52ZM112.88 45.48C105.5 45.48 99.0805 40.5 99.0805 31.32C99.0805 22.32 105.32 17.04 113.36 17.04C120.56 17.04 124.1 21.6 124.1 26.82V27.42H108.98C108.92 28.02 108.92 28.62 108.92 29.22C108.92 40.14 112.88 42.12 116.66 42.12C120.32 42.12 123.08 40.68 124.88 37.38L125.24 37.62C122.78 42.12 119.3 45.48 112.88 45.48ZM108.98 26.82L114.08 26.58C114.74 26.52 115.1 26.46 115.1 24.66C115.1 21.6 114.14 17.64 112.46 17.64C110.78 17.64 109.28 21.18 108.98 26.82ZM137.559 45.48C131.019 45.48 131.019 40.08 131.019 36.72V18.6H127.179V18H131.019V15.54C134.079 14.52 138.039 12.66 140.259 10.38H140.739V18H148.779L148.719 18.6H140.739V35.28C140.739 40.38 140.919 41.94 142.299 41.94C143.739 41.94 145.299 39.48 146.199 36.6L146.619 36.78C145.839 39.48 144.519 45.48 137.559 45.48ZM160.469 45.48C153.929 45.48 153.929 40.08 153.929 36.72V18.6H150.089V18H153.929V15.54C156.989 14.52 160.949 12.66 163.169 10.38H163.649V18H171.689L171.629 18.6H163.649V35.28C163.649 40.38 163.829 41.94 165.209 41.94C166.649 41.94 168.209 39.48 169.109 36.6L169.529 36.78C168.749 39.48 167.429 45.48 160.469 45.48ZM187.412 45.48C180.032 45.48 173.612 40.5 173.612 31.32C173.612 22.32 179.852 17.04 187.892 17.04C195.092 17.04 198.632 21.6 198.632 26.82V27.42H183.512C183.452 28.02 183.452 28.62 183.452 29.22C183.452 40.14 187.412 42.12 191.192 42.12C194.852 42.12 197.612 40.68 199.412 37.38L199.772 37.62C197.312 42.12 193.832 45.48 187.412 45.48ZM183.512 26.82L188.612 26.58C189.272 26.52 189.632 26.46 189.632 24.66C189.632 21.6 188.672 17.64 186.992 17.64C185.312 17.64 183.812 21.18 183.512 26.82ZM201.83 44.52C204.17 44.4 206.39 44.16 206.39 40.98V22.32C206.39 19.38 204.53 18.54 201.83 18.48V18C204.29 18.12 214.01 17.34 215.69 17.04H216.11V21.84H216.23C218.45 19.86 221.45 16.98 224.69 16.98C227.45 16.98 229.31 18.96 229.31 21.48C229.31 24 227.39 26.58 224.51 26.58C222.59 26.58 219.95 25.5 219.11 20.88C218.21 21.24 217.25 21.84 216.11 22.68V40.98C216.11 44.16 218.33 44.4 221.87 44.52V45C219.05 44.94 203.45 44.94 201.83 45V44.52Z" fill="url(#paint0_linear_127_3386)"/>
<defs>
<linearGradient id="paint0_linear_127_3386" x1="-1" y1="17" x2="215.693" y2="57.4739" gradientUnits="userSpaceOnUse">
<stop stop-color="#86FBFF"/>
<stop offset="1" stop-color="#93AAFF"/>
</linearGradient>
</defs>
</svg>
