<svg width="200" height="166" viewBox="0 0 200 166" fill="none" xmlns="http://www.w3.org/2000/svg">
<path d="M26.0223 87.2366L0 107.063L34.4486 91.2019L32.4659 96.6542L36.1834 94.6716L58.4882 164.064L76.5799 151.921L70.632 151.177L59.9752 142.007L69.8885 128.129L40.1487 90.2106L33.4572 88.4758L26.0223 87.2366Z" fill="#7A97FF"/>
<path d="M59.7274 142.007L94.9195 93.6803L88.228 132.59L185.13 164.808L70.632 151.177L59.7274 142.007Z" fill="#8BD9FF"/>
<path d="M28.7485 0L33.2094 88.4758L40.1487 90.2107L61.9579 117.968L75.0929 108.798L28.7485 0Z" fill="#8BD9FF"/>
<path d="M3.22181 108.798L0 107.063L34.6964 90.9542L32.4659 96.6543L3.22181 108.798Z" fill="#8BD9FF"/>
<path d="M68.8971 129.368L61.9579 117.968L94.6716 95.4151L68.8971 129.368Z" fill="#6580E1"/>
<path d="M52.2924 156.877L30.7311 97.3977L36.1834 94.6716L56.2577 156.877H52.2924Z" fill="#6580E1"/>
<path d="M121.685 117.968L118.711 115.985L200 52.5402L137.546 118.959L121.685 117.968Z" fill="#6580E1"/>
<path d="M74.3494 109.541L28.7485 -6.10352e-05L106.815 76.332L107.559 106.815L94.4238 95.6629L74.3494 109.541Z" fill="url(#paint0_linear_251_3360)"/>
<path d="M87.7323 133.085L94.4238 95.6628L121.685 117.968L87.7323 133.085Z" fill="url(#paint1_linear_251_3360)"/>
<path d="M121.685 117.968L87.7323 133.085L185.13 165.056L143.494 119.207L121.685 117.968Z" fill="url(#paint2_linear_251_3360)"/>
<path d="M59.4796 142.255L94.4238 95.6629L87.9802 132.838L185.13 165.056L70.3841 151.177L59.4796 142.255Z" fill="url(#paint3_linear_251_3360)"/>
<path d="M74.5973 109.294L28.7485 -6.10352e-05L33.2094 88.4758L40.1487 90.2106L61.9579 117.968L74.5973 109.294Z" fill="url(#paint4_linear_251_3360)"/>
<defs>
<linearGradient id="paint0_linear_251_3360" x1="117.224" y1="35.9355" x2="48.3271" y2="65.6753" gradientUnits="userSpaceOnUse">
<stop stop-color="#86FBFF"/>
<stop offset="1" stop-color="#93AAFF"/>
</linearGradient>
<linearGradient id="paint1_linear_251_3360" x1="147.212" y1="111.276" x2="82.5279" y2="101.363" gradientUnits="userSpaceOnUse">
<stop stop-color="#86FBFF"/>
<stop offset="1" stop-color="#93AAFF"/>
</linearGradient>
<linearGradient id="paint2_linear_251_3360" x1="171.747" y1="108.798" x2="87.5455" y2="132.607" gradientUnits="userSpaceOnUse">
<stop stop-color="#86FBFF"/>
<stop offset="1" stop-color="#93AAFF"/>
</linearGradient>
<linearGradient id="paint3_linear_251_3360" x1="116.481" y1="108.302" x2="51.0533" y2="146.716" gradientUnits="userSpaceOnUse">
<stop stop-color="#86FBFF"/>
<stop offset="1" stop-color="#93AAFF"/>
</linearGradient>
<linearGradient id="paint4_linear_251_3360" x1="51.6729" y1="0.24777" x2="61.2144" y2="147.212" gradientUnits="userSpaceOnUse">
<stop stop-color="#86FBFF"/>
<stop offset="1" stop-color="#93AAFF"/>
</linearGradient>
</defs>
</svg>
