<svg width="200" height="233" viewBox="0 0 200 233" fill="none" xmlns="http://www.w3.org/2000/svg">
<path d="M26.0223 87.235L0 107.055L34.4486 91.199L32.4659 96.6495L36.1834 94.6675L58.4882 164.037L76.5799 151.897L70.632 151.154L59.9752 141.987L69.8885 128.113L40.1487 90.208L33.4572 88.4738L26.0223 87.235Z" fill="#7A97FF"/>
<path d="M59.7274 141.987L94.9195 93.6765L88.228 132.573L185.13 164.78L70.632 151.154L59.7274 141.987Z" fill="#8BD9FF"/>
<path d="M28.7485 0.0278778L33.2094 88.4738L40.1487 90.2081L61.9579 117.956L75.0929 108.789L28.7485 0.0278778Z" fill="#8BD9FF"/>
<path d="M3.22181 108.789L0 107.055L34.6964 90.9513L32.4659 96.6495L3.22181 108.789Z" fill="#8BD9FF"/>
<path d="M68.8972 129.352L61.958 117.956L94.6717 95.4107L68.8972 129.352Z" fill="#6580E1"/>
<path d="M52.2925 156.852L30.7312 97.3927L36.1835 94.6675L56.2578 156.852H52.2925Z" fill="#6580E1"/>
<path d="M121.685 117.956L118.711 115.974L200 52.5504L137.546 118.947L121.685 117.956Z" fill="#6580E1"/>
<path d="M74.3495 109.532L28.7485 0.027832L106.815 76.3341L107.559 106.807L94.4239 95.6585L74.3495 109.532Z" fill="url(#paint0_linear_1949_8392)"/>
<path d="M87.7324 133.068L94.4239 95.6584L121.685 117.956L87.7324 133.068Z" fill="url(#paint1_linear_1949_8392)"/>
<path d="M121.685 117.956L87.7324 133.068L185.13 165.028L143.495 119.194L121.685 117.956Z" fill="url(#paint2_linear_1949_8392)"/>
<path d="M59.4795 142.235L94.4237 95.6585L87.9801 132.821L185.13 165.028L70.3841 151.154L59.4795 142.235Z" fill="url(#paint3_linear_1949_8392)"/>
<path d="M74.5974 109.285L28.7485 0.027832L33.2095 88.4738L40.1488 90.208L61.958 117.956L74.5974 109.285Z" fill="url(#paint4_linear_1949_8392)"/>
<path d="M24.1259 222.708C25.6859 222.628 26.7659 222.468 26.7659 220.348V205.428H23.9259V205.228C24.8859 205.228 25.8059 205.188 26.7659 205.108V201.948C26.7659 194.148 33.6459 193.388 35.8859 193.388C39.4859 193.388 41.9259 195.428 41.9259 197.668C41.9259 199.028 41.0059 200.868 38.6859 200.868C36.6859 200.868 35.4859 199.468 35.4859 197.708C35.4859 195.908 36.7659 194.868 37.8859 194.308C37.4459 193.988 36.8859 193.788 36.2459 193.788C33.2459 193.788 33.2459 197.228 33.2459 200.508V205.028H39.7259V205.428H33.2459V220.348C33.2459 222.468 35.1659 222.628 37.2059 222.708V223.028C35.8059 222.988 25.2059 222.988 24.1259 223.028V222.708ZM52.1284 210.948C52.1284 208.348 51.8484 204.868 49.0084 204.868C47.7284 204.868 46.5284 205.508 45.4884 206.388C46.6084 206.668 47.7684 207.708 47.7684 209.388C47.7684 211.148 46.4484 212.588 44.5684 212.588C42.6884 212.588 41.4484 211.148 41.4484 209.388C41.4484 206.908 43.9684 204.428 50.5284 204.428C58.6084 204.428 58.6084 208.188 58.6084 211.828V219.828C58.6084 221.788 59.8484 222.348 61.6484 222.388V222.708C60.0084 222.628 53.5284 223.148 52.4084 223.348H52.1284V219.908C51.1284 221.108 48.9684 223.348 46.2484 223.348C44.8484 223.348 41.3684 222.868 41.3684 219.068C41.3684 214.548 46.2484 213.748 52.1284 212.788V210.948ZM48.0084 217.628C48.0084 219.868 48.5684 220.588 49.8884 220.588C50.4884 220.588 51.0084 220.468 52.1284 219.388V213.188C48.3684 213.868 48.0084 215.788 48.0084 217.628ZM62.8341 222.708C64.3941 222.628 65.4741 222.468 65.4741 220.348V196.548C65.4741 194.588 64.2341 194.028 62.4341 193.988V193.668C64.0741 193.748 70.5541 193.228 71.6741 193.028H71.9541V220.348C71.9541 222.468 73.0341 222.628 74.5941 222.708V223.028C73.5141 222.988 63.9141 222.988 62.8341 223.028V222.708ZM76.0372 222.708C77.5972 222.628 78.6772 222.468 78.6772 220.348V196.548C78.6772 194.588 77.4372 194.028 75.6372 193.988V193.668C77.2772 193.748 83.7572 193.228 84.8772 193.028H85.1572V220.348C85.1572 222.468 86.2372 222.628 87.7972 222.708V223.028C86.7172 222.988 77.1172 222.988 76.0372 223.028V222.708ZM98.9203 223.348C94.0003 223.348 89.7203 220.028 89.7203 213.908C89.7203 207.908 93.8803 204.388 99.2403 204.388C104.04 204.388 106.4 207.428 106.4 210.908V211.308H96.3203C96.2803 211.708 96.2803 212.108 96.2803 212.508C96.2803 219.788 98.9203 221.108 101.44 221.108C103.88 221.108 105.72 220.148 106.92 217.948L107.16 218.108C105.52 221.108 103.2 223.348 98.9203 223.348ZM96.3203 210.908L99.7203 210.748C100.16 210.708 100.4 210.668 100.4 209.468C100.4 207.428 99.7603 204.788 98.6403 204.788C97.5203 204.788 96.5203 207.148 96.3203 210.908ZM115.373 223.348C111.013 223.348 111.013 219.748 111.013 217.508V205.428H108.453V205.028H111.013V203.388C113.053 202.708 115.693 201.468 117.173 199.948H117.493V205.028H122.853L122.813 205.428H117.493V216.548C117.493 219.948 117.613 220.988 118.533 220.988C119.493 220.988 120.533 219.348 121.133 217.428L121.413 217.548C120.893 219.348 120.013 223.348 115.373 223.348ZM130.646 223.348C126.286 223.348 126.286 219.748 126.286 217.508V205.428H123.726V205.028H126.286V203.388C128.326 202.708 130.966 201.468 132.446 199.948H132.766V205.028H138.126L138.086 205.428H132.766V216.548C132.766 219.948 132.886 220.988 133.806 220.988C134.766 220.988 135.806 219.348 136.406 217.428L136.686 217.548C136.166 219.348 135.286 223.348 130.646 223.348ZM148.608 223.348C143.688 223.348 139.408 220.028 139.408 213.908C139.408 207.908 143.568 204.388 148.928 204.388C153.728 204.388 156.088 207.428 156.088 210.908V211.308H146.008C145.968 211.708 145.968 212.108 145.968 212.508C145.968 219.788 148.608 221.108 151.128 221.108C153.568 221.108 155.408 220.148 156.608 217.948L156.848 218.108C155.208 221.108 152.888 223.348 148.608 223.348ZM146.008 210.908L149.408 210.748C149.848 210.708 150.088 210.668 150.088 209.468C150.088 207.428 149.448 204.788 148.328 204.788C147.208 204.788 146.208 207.148 146.008 210.908ZM158.22 222.708C159.78 222.628 161.26 222.468 161.26 220.348V207.908C161.26 205.948 160.02 205.388 158.22 205.348V205.028C159.86 205.108 166.34 204.588 167.46 204.388H167.74V207.588H167.82C169.3 206.268 171.3 204.348 173.46 204.348C175.3 204.348 176.54 205.668 176.54 207.348C176.54 209.028 175.26 210.748 173.34 210.748C172.06 210.748 170.3 210.028 169.74 206.948C169.14 207.188 168.5 207.588 167.74 208.148V220.348C167.74 222.468 169.22 222.628 171.58 222.708V223.028C169.7 222.988 159.3 222.988 158.22 223.028V222.708Z" fill="url(#paint5_linear_1949_8392)"/>
<defs>
<linearGradient id="paint0_linear_1949_8392" x1="117.224" y1="35.9513" x2="48.3345" y2="65.6979" gradientUnits="userSpaceOnUse">
<stop stop-color="#86FBFF"/>
<stop offset="1" stop-color="#93AAFF"/>
</linearGradient>
<linearGradient id="paint1_linear_1949_8392" x1="147.212" y1="111.267" x2="82.529" y2="101.35" gradientUnits="userSpaceOnUse">
<stop stop-color="#86FBFF"/>
<stop offset="1" stop-color="#93AAFF"/>
</linearGradient>
<linearGradient id="paint2_linear_1949_8392" x1="171.747" y1="108.789" x2="87.5498" y2="132.605" gradientUnits="userSpaceOnUse">
<stop stop-color="#86FBFF"/>
<stop offset="1" stop-color="#93AAFF"/>
</linearGradient>
<linearGradient id="paint3_linear_1949_8392" x1="116.481" y1="108.294" x2="51.0645" y2="146.714" gradientUnits="userSpaceOnUse">
<stop stop-color="#86FBFF"/>
<stop offset="1" stop-color="#93AAFF"/>
</linearGradient>
<linearGradient id="paint4_linear_1949_8392" x1="51.6729" y1="0.27558" x2="61.208" y2="147.19" gradientUnits="userSpaceOnUse">
<stop stop-color="#86FBFF"/>
<stop offset="1" stop-color="#93AAFF"/>
</linearGradient>
<linearGradient id="paint5_linear_1949_8392" x1="23" y1="203.828" x2="167.531" y2="230.632" gradientUnits="userSpaceOnUse">
<stop stop-color="#86FBFF"/>
<stop offset="1" stop-color="#93AAFF"/>
</linearGradient>
</defs>
</svg>
